<svg width="1024" height="1024" viewBox="0 0 1024 1024" fill="none" xmlns="http://www.w3.org/2000/svg">
  <defs>
    <radialGradient id="background" cx="0" cy="0" r="1" gradientUnits="userSpaceOnUse" gradientTransform="translate(512 500) rotate(90) scale(560)">
      <stop offset="0" stop-color="#ffffff"/>
      <stop offset="0.72" stop-color="#fbfbfb"/>
      <stop offset="1" stop-color="#f0f0f0"/>
    </radialGradient>

    <linearGradient id="leftCrescent" x1="110" y1="210" x2="380" y2="850" gradientUnits="userSpaceOnUse">
      <stop offset="0" stop-color="#2c2f32"/>
      <stop offset="0.52" stop-color="#16181a"/>
      <stop offset="1" stop-color="#24272a"/>
    </linearGradient>

    <linearGradient id="rightCrescent" x1="920" y1="210" x2="650" y2="850" gradientUnits="userSpaceOnUse">
      <stop offset="0" stop-color="#c9c9cb"/>
      <stop offset="0.55" stop-color="#f2f2f4"/>
      <stop offset="1" stop-color="#cfd0d2"/>
    </linearGradient>

    <radialGradient id="blackStone" cx="0" cy="0" r="1" gradientUnits="userSpaceOnUse" gradientTransform="translate(238 392) rotate(44) scale(290)">
      <stop offset="0" stop-color="#747678"/>
      <stop offset="0.18" stop-color="#343638"/>
      <stop offset="0.56" stop-color="#0b0c0d"/>
      <stop offset="1" stop-color="#000000"/>
    </radialGradient>

    <radialGradient id="whiteStone" cx="0" cy="0" r="1" gradientUnits="userSpaceOnUse" gradientTransform="translate(640 400) rotate(45) scale(290)">
      <stop offset="0" stop-color="#ffffff"/>
      <stop offset="0.55" stop-color="#f5f5f6"/>
      <stop offset="1" stop-color="#cfd0d2"/>
    </radialGradient>

    <filter id="crescentShadow" x="20" y="88" width="984" height="860" filterUnits="userSpaceOnUse" color-interpolation-filters="sRGB">
      <feDropShadow dx="0" dy="10" stdDeviation="10" flood-color="#000000" flood-opacity="0.10"/>
    </filter>

    <filter id="stoneShadow" x="120" y="292" width="784" height="430" filterUnits="userSpaceOnUse" color-interpolation-filters="sRGB">
      <feDropShadow dx="14" dy="24" stdDeviation="18" flood-color="#000000" flood-opacity="0.24"/>
    </filter>

    <filter id="softInset" x="-20%" y="-20%" width="140%" height="140%" color-interpolation-filters="sRGB">
      <feGaussianBlur in="SourceAlpha" stdDeviation="4" result="blur"/>
      <feOffset dx="0" dy="3" result="offset"/>
      <feComposite in="offset" in2="SourceAlpha" operator="out" result="inner"/>
      <feColorMatrix in="inner" type="matrix" values="0 0 0 0 0  0 0 0 0 0  0 0 0 0 0  0 0 0 .32 0"/>
      <feBlend in="SourceGraphic" mode="normal"/>
    </filter>
  </defs>

  <rect width="1024" height="1024" fill="url(#background)"/>

  <g filter="url(#crescentShadow)">
    <path d="M424 116C216 158 70 336 70 512C70 692 214 858 424 908C268 820 180 670 180 512C180 354 268 204 424 116Z"
          fill="url(#leftCrescent)"/>
    <path d="M600 116C808 158 954 336 954 512C954 692 810 858 600 908C756 820 844 670 844 512C844 354 756 204 600 116Z"
          fill="url(#rightCrescent)"/>
  </g>

  <g opacity="0.34">
    <path d="M611 120C785 174 890 340 890 512C890 680 790 836 611 904"
          stroke="#a5a7aa" stroke-width="8" stroke-linecap="round"/>
    <path d="M413 120C239 174 134 340 134 512C134 680 234 836 413 904"
          stroke="#060708" stroke-width="5" stroke-linecap="round"/>
  </g>

  <g filter="url(#stoneShadow)">
    <circle cx="320" cy="500" r="168" fill="url(#blackStone)" stroke="#060708" stroke-width="12"/>
    <circle cx="704" cy="500" r="168" fill="url(#whiteStone)" stroke="#bfc1c4" stroke-width="12"/>
  </g>

  <g opacity="0.88">
    <ellipse cx="240" cy="388" rx="52" ry="31" fill="#ffffff" transform="rotate(-36 240 388)"/>
    <ellipse cx="636" cy="390" rx="58" ry="34" fill="#ffffff" opacity="0.78" transform="rotate(-28 636 390)"/>
  </g>

  <g opacity="0.22" filter="url(#softInset)">
    <circle cx="320" cy="500" r="151" stroke="#ffffff" stroke-width="9"/>
    <circle cx="704" cy="500" r="151" stroke="#ffffff" stroke-width="9"/>
  </g>
</svg>
